<?xml version="1.0" encoding="UTF-8" standalone="no"?>
<!-- Created with Inkscape (http://www.inkscape.org/) -->

<svg
   width="50"
   height="50"
   viewBox="0 0 13.229166 13.229167"
   version="1.1"
   id="svg1"
   xml:space="preserve"
   inkscape:export-filename="icon-50x50.svg"
   inkscape:export-xdpi="96"
   inkscape:export-ydpi="96"
   xmlns:inkscape="http://www.inkscape.org/namespaces/inkscape"
   xmlns:sodipodi="http://sodipodi.sourceforge.net/DTD/sodipodi-0.dtd"
   xmlns="http://www.w3.org/2000/svg"
   xmlns:svg="http://www.w3.org/2000/svg"><sodipodi:namedview
     id="namedview1"
     pagecolor="#ffffff"
     bordercolor="#000000"
     borderopacity="0.25"
     inkscape:showpageshadow="2"
     inkscape:pageopacity="0.0"
     inkscape:pagecheckerboard="0"
     inkscape:deskcolor="#d1d1d1"
     inkscape:document-units="mm"
     inkscape:zoom="4.1071317"
     inkscape:cx="6.6956703"
     inkscape:cy="40.052282"
     inkscape:window-width="1920"
     inkscape:window-height="1017"
     inkscape:window-x="-8"
     inkscape:window-y="-8"
     inkscape:window-maximized="1"
     inkscape:current-layer="g1"><inkscape:page
       x="0"
       y="0"
       width="13.229166"
       height="13.229167"
       id="page2"
       margin="0"
       bleed="0" /></sodipodi:namedview><defs
     id="defs1"><linearGradient
       id="swatch8"
       inkscape:swatch="solid"><stop
         style="stop-color:#000000;stop-opacity:1;"
         offset="0"
         id="stop8" /></linearGradient></defs><g
     inkscape:label="Слой 1"
     inkscape:groupmode="layer"
     id="layer1"><g
       inkscape:label="Image"
       id="g1"
       transform="matrix(0.10335286,0,0,0.10335286,0.00583166,0.06832718)"><g
         id="g2"
         transform="matrix(0.77827234,0,0,0.89700534,-2.6956566,-13.437546)"><path
           id="rect1-8"
           style="display:inline;opacity:1;fill:#1fc4ff;fill-opacity:1;stroke:none;stroke-width:70.202;stroke-opacity:1"
           inkscape:label="Main"
           d="m 37.2634,15.028047 h 98.68011 c 18.22293,0 32.89337,14.765002 32.89337,33.105386 V 124.6197 c 0,18.34038 -14.67044,33.10538 -32.89337,33.10538 H 37.2634 c -18.222928,0 -32.8933706,-14.765 -32.8933706,-33.10538 V 48.133433 c 0,-18.340384 14.6704426,-33.105386 32.8933706,-33.105386 z" /><rect
           style="display:inline;fill:#032f3f;fill-opacity:0.996078;stroke-width:13.6234"
           id="rect8-8-1-7"
           width="20.120287"
           height="17.672895"
           x="95.110085"
           y="77.360115"
           rx="1.9999999"
           ry="2"
           inkscape:label="squer 4" /><rect
           style="display:inline;fill:#032f3f;fill-opacity:0.996078;stroke-width:13.6234"
           id="rect8-8-1-7-2"
           width="20.120287"
           height="17.672895"
           x="119.55396"
           y="77.400276"
           rx="1.9999999"
           ry="2"
           inkscape:label="squer 4" /><rect
           style="display:inline;fill:#032f3f;fill-opacity:0.996078;stroke-width:13.6234"
           id="rect8-8-1-7-2-2"
           width="20.120287"
           height="17.672895"
           x="119.88203"
           y="99.411835"
           rx="1.9999999"
           ry="2"
           inkscape:label="squer 4" /><rect
           style="display:inline;fill:#032f3f;fill-opacity:0.996078;stroke-width:13.6234"
           id="rect8-8-1-7-1"
           width="20.120287"
           height="17.672895"
           x="95.496307"
           y="99.191727"
           rx="1.9999999"
           ry="2"
           inkscape:label="squer 4" /><rect
           style="display:inline;fill:#032f3f;fill-opacity:0.996078;stroke:none;stroke-width:70.202;stroke-miterlimit:2;stroke-dasharray:none;stroke-opacity:1"
           id="rect4"
           width="10.279179"
           height="87.055717"
           x="137.13792"
           y="44.757133"
           rx="1.9999999"
           ry="2" /><path
           id="rect5"
           style="fill:#032f3f;fill-opacity:0.996078;stroke-width:70.202;stroke-miterlimit:2"
           d="M 27.902288,44.982787 144.92386,44.669088 c 1.13893,-0.003 2.05583,0.867441 2.05583,1.944938 v 5.421004 c 0,1.077496 -0.9169,1.945646 -2.05583,1.944939 L 28.25938,53.907576 c -0.234383,-1.46e-4 -0.615061,-0.443481 -0.855436,-1.059661 -1.604842,-1.674018 -2.358497,-7.149072 0.498344,-7.865151 z"
           sodipodi:nodetypes="sssssssss" /><rect
           style="fill:#032f3f;fill-opacity:0.996078;stroke:none;stroke-width:70.202;stroke-miterlimit:2;stroke-dasharray:none;stroke-opacity:1"
           id="rect6"
           width="89.407547"
           height="9.3108902"
           x="55.503002"
           y="122.47727"
           rx="1.9999998"
           ry="2" /><path
           id="rect7"
           style="display:inline;fill:#032f3f;fill-opacity:0.996078;stroke-width:70.202;stroke-miterlimit:2"
           d="m 27.896741,53.592328 63.84512,-0.287373 c 14.848899,-0.06684 15.967549,-1.022386 13.477139,1.49434 L 77.313057,83.00015 77.427153,96.066084 c 0.01028,1.173 0.11509,4.284666 0.08513,7.366366 -0.01175,1.20892 -0.2847,3.82465 -0.757101,4.06819 L 56.83072,117.77231 c -1.00031,0.51569 -1.471165,-1.59341 -1.484771,-2.7396 L 54.965244,82.961863 C 54.951637,81.815671 26.757819,53.597454 27.896741,53.592328 Z"
           sodipodi:nodetypes="ssscsssssss" /></g></g></g></svg>
